Patient4_TMGait_0pt5_02_right_40_EMG.mot
version=1
nRows=37
nColumns=33
inDegrees=no
endheader
time	1LAddLong	2LGlutMax	3LGlutMed	4LIliopsoas	5LSemiMemb	6LBicFemLong	7LRecFem	8LVastMed	9LVastLat	10LGasMed	11LTibAnt	12lTibPost	13LPeroneusLong	14LSol	15LExtDigLong	16LFlexDigLong	17RAddLong	18RGlutMax	19RGlutMed	20RIliopsoas	21RSemiMemb	22RBicFemLong	23RRecFem	24RVastMed	25RVastLat	26RGasMed	27RTibAnt	28RTibPost	29RPeroneusLong	30RSol	31RExtDigLong	32RFlexDigLong
53.165	-0.013885	-0.39261	-0.077362	0.004883	-0.042419	0.14374	0.28076	0.002289	-0.082703	-0.027313	-0.048523	0.006714	-0.14771	0.087128	0.035095	0.00061	-0.074921	-0.019684	0.121	0.06134	-0.036316	-0.062256	-0.047302	0.018921	0.06897	0.018616	0.18539	0.003357	0.31937	0.06424	-0.000763	-0.008392
53.166	-0.018768	-0.31326	-0.066071	0.023499	-0.11963	0.16846	0.18112	-0.006409	-0.12024	-0.03418	-0.029602	0.008545	0.006866	0.11383	0.005951	0.005341	-0.039063	0.002899	0.25467	0.045624	-0.021667	-0.1004	-0.10513	0.05249	0.087585	0.022125	-1.0814	0.00061	0.68634	0.06073	0.003204	-0.005493
53.167	-0.026703	-0.23407	-0.00473	0.014648	-0.11231	0.066223	0.077515	-0.016022	-0.12589	-0.006409	-0.023041	0.00946	0.075684	0.06424	-0.020752	0.005493	0.031738	0.012512	0.45258	-0.033417	-0.027313	-0.064087	-0.087433	0.011292	0.073242	0.006866	-1.2677	0.003052	1.0562	0.071106	-0.001373	-0.00824
53.168	-0.035248	-0.17456	0.021515	0.018768	-0.004883	-0.004272	0.085907	-0.005341	-0.011597	0.020142	-0.029449	0.016632	-0.00824	0.007935	-0.060425	-0.004883	0.061951	0.056152	0.16876	0.040741	-0.050659	-0.052948	-0.12833	0.026398	0.098877	-0.006561	-0.9198	-0.003662	-0.15045	0.10284	-0.003052	-0.016022
53.169	-0.025177	-0.19272	0.028076	0.02594	0.044556	0.075836	0.061188	0.012054	0.091705	0.028381	-0.005951	0.00885	0.021515	0.000916	-0.068665	-0.010834	0.098572	-0.068512	-0.15457	0.10071	-0.049133	-0.073853	-0.1384	0.041962	0.12085	-0.008392	-0.2652	0.002594	-0.79666	0.34805	0.000458	-0.016022
53.17	-0.006714	-0.2092	0.027313	0.024567	-0.040588	0.14175	0.013275	0.011749	0.17456	0.044861	-0.009308	0.002747	0.21301	-0.028534	-0.005341	-0.004578	0.1358	-0.098419	-0.20554	0.094757	-0.042572	-0.10407	-0.13351	0.061493	0.12894	-0.016479	0.35767	-0.000153	-0.8403	0.43259	-0.001068	-0.013733
53.171	0.001984	-0.1471	0.079956	0.010834	-0.096588	0.20721	0.025787	0.023041	0.28488	0.089264	-0.019379	0.007324	0.097504	-0.023041	-0.004578	0.007172	0.14404	-0.082703	-0.16647	0.05188	-0.039063	-0.12329	-0.14374	0.004272	0.098267	-0.001221	0.15869	-0.000305	0.013733	0.36896	-0.001068	-0.000763
53.172	0.015106	-0.079651	0.035706	0.002594	-0.11353	0.22675	0.1445	0.022125	0.27908	0.12604	-0.025635	0.011597	0.015411	-0.007019	0.027313	-0.003052	0.10803	0.012512	0.12802	0.006866	-0.032959	-0.10971	-0.18402	-0.013428	0.10986	-0.002899	-0.066833	-0.001068	0.46967	0.28061	-0.00061	-0.010071
53.173	0.014648	-0.027313	-0.001068	-0.005798	-0.11688	0.17242	0.19821	0.019989	-0.025787	0.14114	-0.011139	0.009766	0.28732	0.045166	0.06897	-0.001526	0.015259	0.033722	0.035858	-0.015411	-0.011749	-0.062408	-0.17609	0.044556	0.10773	-0.012817	0.047913	-0.008087	0.18921	0.19684	0.005035	-0.003204
53.174	0.032654	0.029602	0.001984	0.002594	-0.026703	0.10605	0.10346	0.016022	-0.1712	0.10941	-0.002136	-0.005035	0.18204	0.038147	0.087585	0.012665	-0.051575	-0.006866	-0.015869	-0.067444	-0.00412	-0.02243	-0.20966	0.067444	0.12497	-0.006104	0.003662	-0.001526	-0.24674	0.12222	-0.001526	-0.011597
53.175	0.041962	0.010376	-0.010986	-0.00412	0.076447	0.063629	-0.002899	0.019684	-0.0354	0.068817	0.006714	0.019379	-0.12299	0.033417	0.048828	0.002289	-0.064392	0.088501	0.26245	-0.057373	0.043335	0.080719	-0.24506	0.060272	0.11597	-0.003357	-0.049133	-0.000458	-0.32272	0.13001	0.000458	-0.009003
53.176	0.047607	-0.057373	-0.071411	0.002899	0.043182	-0.078583	-0.023193	-0.001984	0.28137	-0.12192	0.005951	0.01709	-0.33783	-0.018921	0.04715	-0.011749	-0.049896	0.082397	0.16342	-0.086823	0.057983	0.3125	-0.23407	0.091705	0.10147	0.000153	-0.21484	-0.006409	-0.11231	0.19043	-0.002747	-0.019226
53.177	0.059509	-0.10635	-0.083466	0.000916	0.000763	0.084991	0.028381	-0.005798	0.58685	-0.17029	-0.019226	0.016632	-0.16525	-0.008087	0.03067	0.005035	-0.004578	0.11551	0.024567	-0.11353	0.040283	0.30518	-0.23987	0.067139	0.077972	-0.006714	-0.44983	-0.007019	-0.28442	0.17654	-0.004578	-0.026703
53.178	0.036774	-0.080414	-0.089417	-0.002441	-0.031586	0.15808	0.06546	-0.006561	0.56747	-0.039673	-0.027161	-0.001678	0.030975	-0.029907	-0.040436	-0.000305	0.031738	0.11963	0.035095	-0.079193	-0.003815	0.11353	-0.20844	0.066833	0.066376	-0.012207	-0.40344	-0.002747	-0.41702	0.070801	-0.003815	-0.037384
53.179	0.029755	-0.06073	-0.14282	0.000916	0.02594	-0.004578	0.067291	0.006104	0.2771	0.023193	-0.001373	0.015564	-0.048218	0.015411	-0.091095	0.000458	0.052185	0.12039	0.095825	-0.008698	-0.023956	-0.045624	-0.25482	0.038452	0.039673	-0.012207	-0.33997	-0.001678	-0.24597	-0.078735	-0.002289	-0.039063
53.18	0.023651	0.023499	-0.13412	-0.003662	0.14481	-0.043793	0.048828	0.010223	0.13107	0.023651	0.048218	0.007324	-0.023651	0.005035	-0.10956	0.00473	0.036011	0.14404	0.074463	0.10864	-0.036926	-0.10757	-0.21881	0.091553	0.055389	0.00061	0.059509	-0.003357	-0.095673	-0.27451	0.000763	-0.037842
53.181	0.008698	0.023041	-0.17578	-0.004425	0.22583	-0.078125	0.079956	-0.00351	0.23789	0.021362	0.010986	0.009613	-0.000153	0.008392	-0.063171	0.001526	0.046234	0.11185	0.031738	0.16876	-0.014954	-0.10178	-0.24384	0.074463	0.043945	0.011597	0.26977	0.001984	0.13611	-0.31632	0.00061	-0.03479
53.182	-0.00061	0.029144	-0.098419	0.009155	0.12314	0.082855	0.11826	0.015411	0.11047	0.014648	-0.054474	0.013275	-0.014343	0.040588	0.049744	0.003357	0.067749	0.14236	0.08194	0.090179	-0.010529	-0.046997	-0.26016	0.02182	0.020447	0.016479	0.19134	0.000916	0.32394	-0.33402	0.005188	-0.024567
53.183	-0.003815	0.075531	-0.084839	0.020905	0.13199	0.03418	0.2298	0.02594	-0.18768	0.023804	-0.06897	0.014038	-0.046234	0.062561	0.094604	0.010986	0.058594	0.20416	0.14954	0.01709	-0.078125	-0.014343	-0.2504	0.005341	0.016022	0.019073	0.59143	-0.000153	0.41077	-0.34714	0	-0.020447
53.184	0.014038	0.088806	-0.097198	0.013885	0.16937	-0.07019	0.28381	0.023346	-0.45502	0.037384	-0.070648	0.009613	-0.028992	0.065308	0.092316	0.011749	0.070038	0.08667	0.23468	-0.10574	-0.10468	-0.004272	-0.24323	-0.020142	0.007019	0.008087	0.64117	-0.000305	-0.27451	-0.23025	-0.003052	-0.021057
53.185	0.021667	0.086517	-0.076904	0.006104	0.1062	-0.32257	0.17197	0.02655	-0.42374	0.031281	-0.11871	0.007782	-0.071564	-0.000153	0.098877	0.002747	0.04364	0.070038	0.063477	-0.17487	-0.091248	-0.055847	-0.21255	-0.005646	-0.005798	0.002289	0.37216	-0.001373	-0.42908	-0.044861	-0.002441	-0.023193
53.186	0.018616	0.19638	-0.13519	0.012207	0.096436	-0.39642	0.072937	0.00473	-0.34531	0.024261	0.072479	0.01236	-0.018768	-0.015259	0.074005	0.011139	0.031433	0.14816	0.003662	-0.10849	-0.14404	-0.029907	-0.19302	-0.023041	-0.019379	-0.008698	0.24338	-0.000916	0.058136	0.103	0.005035	-0.022278
53.187	0.007324	0.23209	0.094147	-0.004883	0.080566	-0.30426	0.076447	0.000305	-0.38391	-0.006409	0.18768	0.009308	0.037384	-0.012817	0.050812	0.011597	-0.007629	0.13626	0.041656	-0.061951	-0.099487	-0.072632	-0.17914	0.002441	-0.031128	-0.017242	-0.14099	-0.000916	-0.22339	0.19943	-0.002747	-0.025024
53.188	-0.005798	0.2565	0.039978	0.01236	0.001984	-0.11429	0.088348	-0.014648	-0.5246	0.007629	0.18021	0.010834	0.068665	-0.003967	-0.006409	0.003204	-0.006866	0.14587	0.018921	0.038757	0.041809	-0.16892	-0.19257	0.024567	-0.023346	-0.016632	-0.014801	-0.000763	-0.56458	0.17441	-0.002747	-0.027466
53.189	-0.019989	0.25238	0.10376	0.022278	-0.019836	0.012817	0.081024	-0.025787	-0.65887	0.032806	0.15778	0.018921	0.046082	0.00473	-0.06958	0.026703	0.005951	0.14893	0.00885	0.15106	0.007019	-0.20203	-0.24811	0.055389	-0.030975	-0.015869	0.42526	-0.002747	-0.60959	0.17014	0	-0.019989
53.19	-0.021362	0.22461	0.070953	0.007782	0.034027	-0.015869	0.12024	-0.019989	-0.54443	0.038452	0.13504	0.017853	-0.040894	0.03006	-0.12299	0.020447	0.0177	0.069885	0.024109	0.215	-0.026855	-0.34607	-0.21072	0.043488	-0.025635	-0.006714	-0.25391	0.001373	0.6752	0.077057	-0.001373	-0.019989
53.191	-0.012512	0.215	0.13092	0.007019	0.045013	0.002899	0.094299	-0.004578	-0.38544	0.028076	-0.10162	0.018921	-0.098419	0.002594	-0.15671	0.012054	0.033417	0.10925	-0.047607	0.1442	-0.024719	-0.40375	-0.22842	0.007935	-0.034332	0.002594	-0.61554	-0.001831	1.1514	-0.021515	0.000916	-0.016327
53.192	-0.013733	0.19196	0.1294	-0.000153	-0.012817	0.046234	0.10361	-0.012817	-0.27084	0.035706	-0.079498	0.014801	-0.17014	0.023499	-0.10559	0.026398	-0.011292	0.12619	0.094299	0.011292	-0.067139	-0.26916	-0.21286	0.006409	-0.035248	0.011444	-0.26733	-0.001068	0.43762	-0.19089	-0.001373	-0.007935
53.193	-0.014801	0.22308	0.11017	0.004425	-0.1152	0.047455	0.15625	-0.029297	-0.20477	0.03006	-0.0383	0.019073	0.069275	0.004272	-0.1413	0.016632	-0.012817	0.15243	0.061798	-0.013123	-0.063171	-0.13458	-0.2478	0.015717	-0.017548	0.015106	0.10742	-0.000916	0.12451	-0.20828	-0.001068	-0.020447
53.194	-0.019226	0.20111	0.037231	0.007935	-0.2005	-0.031586	0.19714	-0.011749	-0.079803	0.065308	-0.013123	0.013123	0.16571	0.022278	-0.085754	0.025482	-0.005341	0.13855	-0.044861	-0.021973	-0.029755	-0.076294	-0.24521	0.029449	-0.030212	0.004578	0.35156	-0.00412	-0.048065	-0.043335	-0.004272	-0.018616
53.195	-0.010223	0.23285	0.043488	-0.004578	-0.17364	-0.23895	0.27756	-0.000153	0.073242	-0.027161	-0.022125	0.011292	0.16129	0.073242	0.010834	0.029449	0.005493	0.11871	-0.075378	-0.044861	-0.054779	-0.1236	-0.29526	0.062714	-0.027466	-0.005188	0.32715	-0.003662	-0.02594	0.090027	-0.002747	-0.02655
53.196	-0.01358	0.24887	-0.006866	0.001831	-0.064392	-0.26794	0.20126	0	0.11475	0.032043	-0.024719	0.016632	-0.077667	0.083466	0.058746	0.026245	-0.039368	0.1294	0.03891	-0.048981	-0.044098	-0.13336	-0.34409	0.078125	-0.006561	-0.018616	-0.035706	-0.007782	-0.002899	0.23163	-0.002441	-0.033112
53.197	-0.007782	0.27054	-0.12009	0.010529	-0.018616	-0.058746	0.19394	0.030212	0.16739	0.069885	-0.037994	0.02594	-0.094604	0.085907	-0.000916	0.027924	-0.058289	0.19791	-0.024567	-0.021362	-0.055542	-0.12177	-0.3302	0.075226	0.003662	-0.020142	-0.30319	-0.003967	-0.003052	0.26871	-0.002594	-0.032043
53.198	0.006866	0.3125	-0.15793	-0.00061	-0.003052	0.21637	0.15167	0.03891	0.31265	0.058289	-0.043488	0.014648	-0.089111	0.090179	-0.03479	0.061798	-0.063629	0.30594	-0.022736	-0.071259	-0.076599	0.013428	-0.26398	0.018616	-0.040436	-0.014191	-0.23438	-0.004272	-0.013428	0.26672	-0.006409	-0.035095
53.199	-0.000458	0.31357	-0.103	0.020447	-0.042114	0.23041	0.15228	0.013123	0.31342	0.02655	-0.040436	0.014801	-0.078735	0.14557	-0.046539	0.049896	-0.1004	0.30228	0.19608	-0.093994	-0.13611	0.14923	-0.24597	0.007019	-0.050659	-0.005035	0.28381	-0.004272	-0.003967	0.15396	-0.002441	-0.046539
53.2	0.003357	0.24704	0.015869	0.023193	-0.096741	0.20844	0.12711	-0.005951	0.26535	0.019836	-0.007172	0.016022	-0.016174	0.19745	-0.060272	-0.44357	-0.12054	0.3363	0.12787	-0.079193	0.045929	0.063934	-0.20538	-0.000305	-0.055847	-0.00412	0.64636	-0.003052	-0.089569	0.088348	-0.004578	-0.032654
53.201	0.011292	0.22522	0.081482	0.029297	-0.11276	0.17456	0.031281	-0.031586	0.25711	0.020905	0.021515	0.017853	0.038147	0.19882	-0.066071	-0.30472	-0.083923	0.30777	0.016632	-0.19882	0.066681	0.004883	-0.21866	0.007172	-0.062561	-0.00946	0.72098	0.001373	-0.21698	0.093536	-0.002899	-0.054932
